<?xml version="1.0" encoding="utf-8"?>
<svg version="1.1" id="Capa_1" x="0px" y="0px" viewBox="0 0 219.151 219.151" style="enable-background:new 0 0 219.151 219.151;" xmlns="http://www.w3.org/2000/svg">
  <g>
    <path d="M 94.861 159.307 C 97.79 162.235 102.539 162.234 105.467 159.307 C 108.397 156.377 108.397 151.629 105.466 148.699 L 76.646 119.88 L 160.103 119.872 C 164.245 119.871 167.602 116.514 167.602 112.37 C 167.601 108.228 164.244 104.872 160.102 104.872 L 76.642 104.88 L 105.469 76.055 C 108.398 73.126 108.398 68.376 105.469 65.448 C 104.004 63.984 102.085 63.251 100.165 63.251 C 98.246 63.251 96.327 63.984 94.862 65.447 L 53.233 107.075 C 51.826 108.481 51.036 110.388 51.036 112.378 C 51.037 114.368 51.827 116.274 53.234 117.683 L 94.861 159.307 Z" style="fill: rgb(202, 198, 237);"/>
  </g>
  <g/>
  <g/>
  <g/>
  <g/>
  <g/>
  <g/>
  <g/>
  <g/>
  <g/>
  <g/>
  <g/>
  <g/>
  <g/>
  <g/>
  <g/>
</svg>